<svg width="120" height="32" viewBox="0 0 120 32" fill="none" xmlns="http://www.w3.org/2000/svg">
<path d="M104.223 25.8475L103.669 28.975H107.068L107.179 28.3594H104.47L104.802 26.4386H107.523L107.622 25.8352H105.541L104.223 25.8475Z" fill="#808080"/>
<path d="M104.581 23.8036L104.47 24.4193H105.159H105.849H107.88L107.979 23.8036H104.581Z" fill="#808080"/>
<path d="M83.156 28.9751H82.2695L80.6319 26.6726L80.0285 27.2143L79.7207 28.9751H79.0312L79.9423 23.8036H80.6319L80.1516 26.5002L83.1314 23.8036H83.9687L81.2352 26.2293L83.156 28.9751Z" fill="#808080"/>
<path d="M89.3617 27.4975C89.3248 27.6945 89.2386 27.9038 89.1155 28.1008C88.9923 28.2978 88.8323 28.4702 88.6353 28.6056C88.4259 28.7534 88.192 28.8642 87.9334 28.9504C87.6748 29.0366 87.367 29.0735 87.0223 29.0735C86.6529 29.0735 86.3204 29.0366 86.0372 28.975C85.754 28.9011 85.4708 28.8026 85.1876 28.6672L85.3354 27.8053H85.3846C85.6063 28.0269 85.8772 28.187 86.1973 28.3101C86.5174 28.4332 86.8253 28.4825 87.1331 28.4825C87.564 28.4825 87.9088 28.3963 88.1674 28.2486C88.4383 28.0885 88.586 27.8792 88.6353 27.6083C88.6722 27.3743 88.6476 27.2143 88.5614 27.1034C88.4629 26.9926 88.3151 26.9064 88.0935 26.8449C87.9334 26.7956 87.7487 26.7587 87.5517 26.7341C87.3547 26.7094 87.1454 26.6602 86.9238 26.6232C86.4805 26.5247 86.1727 26.3647 86.0003 26.1307C85.8156 25.8968 85.7663 25.589 85.8279 25.2073C85.9018 24.7763 86.148 24.4192 86.5667 24.1483C86.9853 23.8775 87.4655 23.7297 88.0319 23.7297C88.389 23.7297 88.7214 23.7666 89.017 23.8282C89.3125 23.9021 89.5587 23.9883 89.7804 24.0868L89.6326 24.8994H89.5834C89.411 24.727 89.177 24.5916 88.8815 24.4808C88.586 24.37 88.2659 24.3207 87.9334 24.3207C87.564 24.3207 87.2562 24.3946 87.0099 24.5547C86.7637 24.7024 86.6159 24.8994 86.5667 25.1457C86.5297 25.3673 86.5544 25.5274 86.6406 25.6505C86.7267 25.7736 86.9114 25.8722 87.1823 25.9337C87.3301 25.9707 87.5271 26.0076 87.798 26.0568C88.0566 26.1061 88.2905 26.1553 88.4629 26.2046C88.8323 26.3031 89.0908 26.4632 89.2509 26.6725C89.374 26.8449 89.4233 27.1281 89.3617 27.4975Z" fill="#808080"/>
<path d="M95.629 25.3674C95.5921 25.6013 95.5059 25.8106 95.3951 26.0076C95.2843 26.2046 95.1365 26.377 94.9765 26.5125C94.7671 26.6972 94.5332 26.8203 94.2746 26.9188C94.016 27.005 93.7082 27.0542 93.3388 27.0542H92.6493L92.3045 28.9874H91.615L92.5262 23.8159H93.9299C94.2377 23.8159 94.4963 23.8406 94.7056 23.8898C94.9149 23.9391 95.0873 24.0253 95.235 24.1361C95.4074 24.2715 95.5305 24.4316 95.6044 24.6286C95.6783 24.8133 95.6783 25.0595 95.629 25.3674ZM94.9149 25.3797C94.9518 25.2073 94.9395 25.0472 94.9026 24.9118C94.8656 24.7763 94.7918 24.6778 94.6809 24.5917C94.5824 24.5178 94.4593 24.4685 94.3239 24.4316C94.1884 24.3946 94.016 24.3823 93.7944 24.3823H93.1172L92.7478 26.4509H93.3265C93.6097 26.4509 93.8314 26.4263 94.016 26.377C94.2007 26.3278 94.3485 26.2539 94.4839 26.1431C94.6071 26.0323 94.7056 25.9091 94.7794 25.7983C94.841 25.6752 94.8903 25.5397 94.9149 25.3797Z" fill="#808080"/>
<path d="M101.589 28.9751H100.702L99.3353 26.9188H98.3626L98.0055 28.9751H97.3159L98.2271 23.8036H99.6677C99.9755 23.8036 100.234 23.8283 100.431 23.8652C100.628 23.9021 100.801 23.976 100.948 24.0868C101.121 24.21 101.231 24.3577 101.305 24.5301C101.379 24.7148 101.392 24.9364 101.342 25.2073C101.281 25.5767 101.133 25.8968 100.899 26.1431C100.665 26.3894 100.382 26.5864 100.025 26.7095L101.589 28.9751ZM100.64 25.2566C100.665 25.1088 100.665 24.9734 100.628 24.8625C100.591 24.7517 100.53 24.6532 100.419 24.567C100.333 24.5055 100.222 24.4562 100.086 24.4316C99.9509 24.407 99.7909 24.3947 99.6062 24.3947H98.7935L98.4487 26.3524H99.1383C99.3599 26.3524 99.5446 26.3278 99.717 26.2909C99.8894 26.2539 100.037 26.18 100.173 26.0815C100.296 25.983 100.394 25.8722 100.456 25.7491C100.554 25.6136 100.604 25.4536 100.64 25.2566Z" fill="#808080"/>
<path d="M113.581 27.4975C113.544 27.6945 113.458 27.9038 113.335 28.1008C113.212 28.2978 113.052 28.4702 112.855 28.6056C112.646 28.7534 112.412 28.8642 112.153 28.9504C111.894 29.0366 111.587 29.0735 111.242 29.0735C110.872 29.0735 110.54 29.0366 110.257 28.975C109.974 28.9011 109.69 28.8026 109.407 28.6672L109.555 27.8053H109.604C109.826 28.0269 110.097 28.187 110.417 28.3101C110.737 28.4332 111.045 28.4825 111.353 28.4825C111.784 28.4825 112.128 28.3963 112.387 28.2486C112.658 28.0885 112.806 27.8792 112.855 27.6083C112.892 27.3743 112.867 27.2143 112.781 27.1034C112.682 26.9926 112.535 26.9064 112.313 26.8449C112.153 26.7956 111.968 26.7587 111.771 26.7341C111.574 26.7094 111.365 26.6602 111.143 26.6232C110.7 26.5247 110.392 26.3647 110.22 26.1307C110.035 25.8968 109.986 25.589 110.048 25.2073C110.121 24.7763 110.368 24.4192 110.786 24.1483C111.205 23.8775 111.685 23.7297 112.252 23.7297C112.609 23.7297 112.941 23.7666 113.237 23.8282C113.532 23.9021 113.778 23.9883 114 24.0868L113.852 24.8994H113.803C113.631 24.727 113.397 24.5916 113.101 24.4808C112.806 24.37 112.485 24.3207 112.153 24.3207C111.784 24.3207 111.476 24.3946 111.23 24.5547C110.983 24.7024 110.836 24.8994 110.786 25.1457C110.749 25.3673 110.774 25.5274 110.86 25.6505C110.946 25.7736 111.131 25.8722 111.402 25.9337C111.55 25.9707 111.747 26.0076 112.018 26.0568C112.276 26.1061 112.51 26.1553 112.683 26.2046C113.052 26.3031 113.31 26.4632 113.471 26.6725C113.606 26.8449 113.655 27.1281 113.581 27.4975Z" fill="#808080"/>
<path d="M73.6627 25.8475L73.1086 28.975H76.507L76.6178 28.3594H73.8967L74.2414 26.4386H76.9503L77.0611 25.8352H74.9802L73.6627 25.8475Z" fill="#808080"/>
<path d="M74.0198 23.8036L73.909 24.4193H74.5985H75.288H77.3073L77.4182 23.8036H74.0198Z" fill="#808080"/>
<path d="M41.9445 17.3147C42.2154 17.4009 42.4863 17.4625 42.7818 17.5117C43.0281 17.5733 43.2989 17.6225 43.6068 17.6595C43.9146 17.6964 44.2224 17.7087 44.5426 17.7087C45.0966 17.7087 45.3798 17.4994 45.3798 17.0808C45.3798 16.9207 45.2936 16.7606 45.1213 16.5882C44.9489 16.4282 44.7396 16.2435 44.481 16.0342C44.2224 15.8248 43.9392 15.6032 43.6437 15.3569C43.3482 15.1107 43.065 14.8275 42.8064 14.5073C42.5478 14.1872 42.3385 13.8301 42.1661 13.4361C41.9938 13.0421 41.9076 12.5865 41.9076 12.0694C41.9076 11.4907 42.0061 10.9858 42.2154 10.5426C42.4247 10.0993 42.7079 9.72992 43.065 9.43441C43.4221 9.1389 43.853 8.91727 44.3455 8.76951C44.8381 8.62175 45.3552 8.53556 45.9093 8.53556C46.2048 8.53556 46.488 8.54788 46.7835 8.58482C47.079 8.60944 47.3376 8.64638 47.5592 8.67101C47.8301 8.70795 48.0887 8.74488 48.3349 8.78182V12.2171C48.2364 12.2048 48.1256 12.1925 48.0148 12.1802C47.9163 12.1679 47.8055 12.1556 47.6947 12.1433C47.5715 12.1309 47.4484 12.1186 47.313 12.1186C47.2391 12.1186 47.1529 12.1186 47.0421 12.1309C46.9313 12.1433 46.8328 12.1556 46.7343 12.1802C46.6358 12.2048 46.5496 12.2418 46.4757 12.3033C46.4018 12.3649 46.3649 12.4511 46.3649 12.5619C46.3649 12.6604 46.4511 12.7835 46.6111 12.9313C46.7712 13.079 46.9682 13.2514 47.2022 13.4484C47.4361 13.6454 47.6947 13.8671 47.9779 14.1256C48.2611 14.3842 48.5196 14.6797 48.7536 15.0122C48.9875 15.3446 49.1845 15.714 49.3446 16.1327C49.5047 16.5513 49.5909 17.0192 49.5909 17.524C49.5909 18.0658 49.5047 18.5706 49.3323 19.0385C49.1599 19.5064 48.9013 19.9251 48.5443 20.2698C48.1872 20.6146 47.7316 20.8978 47.1775 21.0948C46.6234 21.2918 45.9709 21.4026 45.2074 21.4026C44.7519 21.4026 44.3209 21.378 43.9269 21.341C43.5329 21.3041 43.1881 21.2425 42.8803 21.181C42.5355 21.1194 42.2154 21.0455 41.9199 20.9593V17.3147H41.9445Z" fill="#B52025"/>
<path d="M54.9593 8.56016H50.8714V21.4641H54.9593V8.56016Z" fill="#B52025"/>
<path d="M56.4122 15.0121C56.4122 14.0271 56.5846 13.1406 56.9171 12.3525C57.2495 11.5645 57.7174 10.8873 58.2961 10.3209C58.8748 9.7545 59.552 9.32355 60.3278 9.02804C61.1035 8.73253 61.9161 8.57246 62.7903 8.57246C63.4799 8.57246 64.0955 8.63402 64.625 8.76947C65.1667 8.90491 65.6223 9.05266 66.004 9.22505C66.4473 9.42205 66.8413 9.63137 67.1614 9.86532L65.2652 13.2637C65.0682 13.1159 64.8589 12.9805 64.6373 12.8451C64.428 12.7466 64.1817 12.648 63.8985 12.5619C63.6153 12.4757 63.2952 12.4264 62.9258 12.4264C62.5564 12.4264 62.2116 12.488 61.8915 12.6234C61.5714 12.7589 61.3005 12.9436 61.0665 13.1775C60.8326 13.4115 60.6479 13.6823 60.5124 13.9902C60.377 14.298 60.3154 14.6427 60.3154 14.9875C60.3154 15.3446 60.3893 15.677 60.5248 15.9849C60.6602 16.2927 60.8572 16.5759 61.0912 16.7975C61.3374 17.0315 61.6206 17.2162 61.9407 17.3516C62.2609 17.487 62.618 17.5486 63.012 17.5486C63.406 17.5486 63.7384 17.4994 64.0463 17.4009C64.3418 17.3023 64.6004 17.1915 64.8097 17.0684C65.0559 16.933 65.2652 16.7729 65.4376 16.5882L67.3338 19.9866C67.0137 20.2575 66.6197 20.4914 66.1764 20.7007C65.7947 20.8731 65.3268 21.0332 64.785 21.1809C64.2433 21.3287 63.6153 21.4026 62.9258 21.4026C61.99 21.4026 61.1158 21.2425 60.3154 20.9347C59.5151 20.6268 58.8256 20.1836 58.2469 19.6172C57.6682 19.0508 57.2126 18.3736 56.8924 17.5855C56.5723 16.8468 56.4122 15.9725 56.4122 15.0121Z" fill="#B52025"/>
<path d="M68.245 8.62175H75.3619V11.9832H72.099V13.4115H75.3127V16.5882H72.099V18.0658H75.485V21.4272H68.245V8.62175Z" fill="#B52025"/>
<path d="M86.9976 13.4977C86.9976 14.3842 86.8499 15.1353 86.542 15.7632C86.2342 16.3912 85.8279 16.896 85.2984 17.2777C84.769 17.6594 84.1533 17.9426 83.4515 18.1273C82.7497 18.312 81.9986 18.3982 81.1859 18.3982V21.4641H77.1473V8.5971H81.1859C81.9986 8.5971 82.7497 8.68329 83.4515 8.86799C84.1533 9.05268 84.769 9.33588 85.2984 9.71758C85.8279 10.0993 86.2342 10.6041 86.542 11.2321C86.8376 11.8477 86.9976 12.6111 86.9976 13.4977ZM81.1859 14.926H81.3583C81.8877 14.926 82.2695 14.8028 82.5034 14.5443C82.7373 14.298 82.8605 13.9409 82.8605 13.4977C82.8605 13.0421 82.7373 12.6973 82.5034 12.4511C82.2695 12.2048 81.8877 12.0694 81.3583 12.0694H81.1859V14.926Z" fill="#B52025"/>
<path d="M100.296 11.934H98.067V8.54791H106.501V11.934H104.273V21.4642H100.296V11.934Z" fill="#B52025"/>
<path d="M91.9475 8.5971L89.608 12.7096L93.3635 10.9489L91.9475 8.5971Z" fill="#B52025"/>
<path d="M94.9764 18.4352L89.4848 21.4518H99.1505L94.3485 13.0421L92.5508 14.8521L93.7821 16.6375L94.9764 18.4352Z" fill="#B52025"/>
<path d="M88.8077 14.5566L85.1507 21.4518H87.2809L90.6792 17.2162L88.8077 14.5566Z" fill="#B52025"/>
<path d="M92.5508 14.8644L90.4699 17.524L93.0064 15.517L92.5508 14.8644Z" fill="#CCCCCC"/>
<path d="M25.8146 29.2336C25.8146 29.837 21.4804 30.3295 16.1243 30.3295C10.7804 30.3295 6.43395 29.837 6.43395 29.2336C6.43395 28.6303 10.7681 28.1378 16.1243 28.1378C21.4681 28.1378 25.8146 28.6303 25.8146 29.2336Z" fill="#C8C7C7"/>
<path d="M27.2552 28.1624C26.9597 28.9381 26.0978 29.3321 25.322 29.0489L7.09885 22.2645C6.32314 21.9689 5.92912 21.107 6.21232 20.3313L12.9968 2.10814C13.2923 1.33242 14.1542 0.938407 14.9299 1.22161L33.1531 8.00605C33.9288 8.30156 34.3228 9.16346 34.0396 9.93918L27.2552 28.1624Z" fill="#941F27"/>
<path d="M26.8365 27.399C26.5656 28.1255 25.753 28.5072 25.0142 28.2363L7.84992 21.8459C7.12346 21.575 6.74176 20.7624 7.01264 20.0236L13.4031 2.85931C13.674 2.13284 14.4866 1.75114 15.2254 2.02203L32.3897 8.41245C33.1161 8.68334 33.4978 9.49599 33.2269 10.2348L26.8365 27.399Z" fill="#B52025"/>
<path d="M25.519 29.2706C25.2358 29.2706 24.9649 29.2213 24.6941 29.1228L7.5298 22.7324C6.93877 22.5107 6.47088 22.0798 6.21231 21.5011C5.95374 20.9347 5.92911 20.2944 6.15074 19.7034L12.5289 2.53912C12.8613 1.61565 13.7478 1 14.7329 1C15.0161 1 15.287 1.04925 15.5578 1.14776L32.7221 7.53818C33.3131 7.75982 33.781 8.19077 34.0396 8.76948C34.2982 9.33587 34.3228 9.97615 34.1012 10.5672L27.7107 27.7314C27.3783 28.6426 26.4918 29.2706 25.519 29.2706ZM14.7329 2.88388C14.5728 2.88388 14.3635 2.98239 14.2896 3.19171L7.89918 20.356C7.83762 20.516 7.88687 20.6515 7.9115 20.7131C7.93612 20.7746 8.02231 20.8977 8.18238 20.9593L25.3466 27.3497C25.556 27.4236 25.8515 27.362 25.9623 27.0665L32.3404 9.90227C32.402 9.7422 32.3527 9.60676 32.3281 9.53288C32.3035 9.47132 32.2173 9.34819 32.0572 9.28662L14.8929 2.90851C14.8437 2.88388 14.7821 2.88388 14.7329 2.88388Z" fill="#911D26"/>
<path d="M32.168 9.34818L24.4355 12.8451L21.5789 14.3349L21.8128 15.1968L22.2438 16.7483L22.9087 19.137L10.608 20.0851L18.5745 15.911L18.476 15.5416L7.91149 20.3313L7.89918 20.3683C7.83761 20.5283 7.88687 20.6638 7.91149 20.7253C7.93612 20.7869 8.02231 20.91 8.18238 20.9716L25.3466 27.3497C25.3959 27.3743 25.4575 27.3743 25.519 27.3743C25.6914 27.3743 25.8761 27.2758 25.9623 27.0665L32.3404 9.90226C32.402 9.74219 32.3527 9.60675 32.3281 9.53287C32.3158 9.49593 32.2665 9.40974 32.168 9.34818Z" fill="#911A1E"/>
<path d="M33.4116 8.79412L32.1803 9.3482C32.2665 9.40977 32.3158 9.49596 32.3404 9.54521C32.365 9.60677 32.4143 9.75453 32.3527 9.9146L25.9623 27.0789C25.8884 27.2882 25.7037 27.3867 25.519 27.3867C25.4574 27.3867 25.4082 27.3744 25.3466 27.3621L8.18236 20.9716C8.02229 20.9101 7.94842 20.7869 7.91148 20.7254C7.88685 20.6638 7.8376 20.5284 7.89916 20.3683L7.91148 20.3314L6.75406 20.8485C6.791 21.144 6.98801 21.3903 7.28352 21.5011L25.5313 28.2855C25.6298 28.3225 25.716 28.3348 25.8145 28.3348C26.1347 28.3348 26.4302 28.1255 26.5533 27.793L33.3993 9.39745C33.4732 9.18813 33.4855 8.97881 33.4116 8.79412Z" fill="#74171E"/>
<path d="M29.57 10.1609L17.2324 11.109L17.9096 13.4977L18.5868 15.9233L29.57 10.1609Z" fill="white"/>
<path d="M10.608 20.0851L22.9333 19.137L22.2561 16.7606L21.5789 14.335L10.608 20.0851Z" fill="#E1E1E0"/>
<path d="M21.5912 14.3473L21.8251 15.1969L21.5912 14.3473Z" fill="#741518"/>
<path d="M21.5789 14.335L18.5376 15.9356L21.8251 15.1969L21.5912 14.3473L21.5789 14.335Z" fill="#B4B4B3"/>
</svg>
